<svg xmlns="http://www.w3.org/2000/svg" height="48" viewBox="0 96 960 960" width="48" fill="#fff"><path d="M438 798H280q-92.865 0-157.432-64.268Q58 669.464 58 576.155q0-93.308 64.567-158.231Q187.135 353 280 353h158v92H280.429q-55.512 0-93.471 37.765-37.958 37.764-37.958 93Q149 631 186.958 669q37.959 38 93.471 38H438v91ZM310 611v-69h340v69H310Zm212 187v-91h157.571q55.512 0 93.471-37.765 37.958-37.764 37.958-93Q811 521 773.042 483q-37.959-38-93.471-38H522v-92h158q92.545 0 157.772 64.994Q903 482.989 903 576.297q0 93.308-65.228 157.505Q772.545 798 680 798H522Z"/></svg>
